<svg width="41" height="40" viewBox="0 0 41 40" fill="none" xmlns="http://www.w3.org/2000/svg">
<path d="M4.66663 36C3.56663 36 2.62496 35.6083 1.84163 34.825C1.05829 34.0417 0.666626 33.1 0.666626 32V4C0.666626 2.9 1.05829 1.95833 1.84163 1.175C2.62496 0.391667 3.56663 0 4.66663 0H32.6666C33.7666 0 34.7083 0.391667 35.4916 1.175C36.275 1.95833 36.6666 2.9 36.6666 4V17.4C36.0333 17.1 35.3833 16.8417 34.7166 16.625C34.05 16.4083 33.3666 16.25 32.6666 16.15V4H4.66663V32H16.7666C16.8666 32.7333 17.025 33.4333 17.2416 34.1C17.4583 34.7667 17.7166 35.4 18.0166 36H4.66663ZM4.66663 32V4V16.15V16V32ZM8.66663 28H16.8166C16.9166 27.3 17.075 26.6167 17.2916 25.95C17.5083 25.2833 17.75 24.6333 18.0166 24H8.66663V28ZM8.66663 20H20.8666C21.9333 19 23.125 18.1667 24.4416 17.5C25.7583 16.8333 27.1666 16.3833 28.6666 16.15V16H8.66663V20ZM8.66663 12H28.6666V8H8.66663V12ZM30.6666 40C27.9 40 25.5416 39.025 23.5916 37.075C21.6416 35.125 20.6666 32.7667 20.6666 30C20.6666 27.2333 21.6416 24.875 23.5916 22.925C25.5416 20.975 27.9 20 30.6666 20C33.4333 20 35.7916 20.975 37.7416 22.925C39.6916 24.875 40.6666 27.2333 40.6666 30C40.6666 32.7667 39.6916 35.125 37.7416 37.075C35.7916 39.025 33.4333 40 30.6666 40ZM29.6666 36H31.6666V31H36.6666V29H31.6666V24H29.6666V29H24.6666V31H29.6666V36Z" fill="white"/>
</svg>
