<svg width="49" height="48" viewBox="0 0 49 48" fill="none" xmlns="http://www.w3.org/2000/svg">
<mask id="mask0_51_2677" style="mask-type:alpha" maskUnits="userSpaceOnUse" x="0" y="0" width="49" height="48">
<rect x="0.333374" width="48" height="48" fill="#D9D9D9"/>
</mask>
<g mask="url(#mask0_51_2677)">
<path d="M22.3334 34H14.3334C11.5667 34 9.20837 33.025 7.25837 31.075C5.30837 29.125 4.33337 26.7667 4.33337 24C4.33337 21.2333 5.30837 18.875 7.25837 16.925C9.20837 14.975 11.5667 14 14.3334 14H22.3334V18H14.3334C12.6667 18 11.25 18.5833 10.0834 19.75C8.91671 20.9167 8.33337 22.3333 8.33337 24C8.33337 25.6667 8.91671 27.0833 10.0834 28.25C11.25 29.4167 12.6667 30 14.3334 30H22.3334V34ZM16.3334 26V22H32.3334V26H16.3334ZM26.3334 34V30H34.3334C36 30 37.4167 29.4167 38.5834 28.25C39.75 27.0833 40.3334 25.6667 40.3334 24C40.3334 22.3333 39.75 20.9167 38.5834 19.75C37.4167 18.5833 36 18 34.3334 18H26.3334V14H34.3334C37.1 14 39.4584 14.975 41.4084 16.925C43.3584 18.875 44.3334 21.2333 44.3334 24C44.3334 26.7667 43.3584 29.125 41.4084 31.075C39.4584 33.025 37.1 34 34.3334 34H26.3334Z" fill="white"/>
</g>
</svg>
