<svg width="33" height="32" viewBox="0 0 33 32" fill="none" xmlns="http://www.w3.org/2000/svg">
<mask id="mask0_206_1527" style="mask-type:alpha" maskUnits="userSpaceOnUse" x="0" y="0" width="33" height="32">
<rect x="0.25" width="32" height="32" fill="#D9D9D9"/>
</mask>
<g mask="url(#mask0_206_1527)">
<path d="M0.333374 23.9166V21.8999C0.333374 20.9555 0.816707 20.1944 1.78337 19.6166C2.75004 19.0388 4.01671 18.7499 5.58337 18.7499C5.91671 18.7499 6.22504 18.7583 6.50837 18.7749C6.79171 18.7916 7.0556 18.8217 7.30004 18.8653C7.00004 19.3217 6.77782 19.796 6.63337 20.2883C6.48893 20.7807 6.41671 21.2945 6.41671 21.8296V23.9166H0.333374ZM8.33337 23.9166V21.8283C8.33337 21.1427 8.52226 20.5083 8.90004 19.9249C9.27782 19.3416 9.82226 18.8333 10.5334 18.3999C11.2445 17.9666 12.0884 17.6388 13.065 17.4166C14.0417 17.1944 15.1007 17.0833 16.242 17.0833C17.4052 17.0833 18.475 17.1944 19.4517 17.4166C20.4284 17.6388 21.2723 17.9666 21.9834 18.3999C22.6945 18.8333 23.2362 19.3391 23.6084 19.9176C23.9806 20.496 24.1667 21.1346 24.1667 21.8333V23.9166H8.33337ZM26.0834 23.9166V21.8333C26.0834 21.2888 26.0139 20.7694 25.875 20.2749C25.7362 19.7805 25.5278 19.311 25.25 18.8666C25.4945 18.8221 25.7528 18.7916 26.025 18.7749C26.2973 18.7583 26.5945 18.7499 26.9167 18.7499C28.4834 18.7499 29.75 19.0368 30.7167 19.6106C31.6834 20.1841 32.1667 20.9473 32.1667 21.8999V23.9166H26.0834ZM5.58271 17.2499C4.87204 17.2499 4.26393 16.9968 3.75837 16.4906C3.25282 15.9844 3.00004 15.3759 3.00004 14.6653C3.00004 13.9328 3.25315 13.3194 3.75937 12.8249C4.2656 12.3305 4.87404 12.0833 5.58471 12.0833C6.31715 12.0833 6.9306 12.3309 7.42504 12.8263C7.91949 13.3216 8.16671 13.9353 8.16671 14.6673C8.16671 15.3779 7.91904 15.986 7.42371 16.4916C6.92837 16.9971 6.31471 17.2499 5.58271 17.2499ZM26.916 17.2499C26.2054 17.2499 25.5973 16.9968 25.0917 16.4906C24.5862 15.9844 24.3334 15.3759 24.3334 14.6653C24.3334 13.9328 24.5865 13.3194 25.0927 12.8249C25.5989 12.3305 26.2074 12.0833 26.918 12.0833C27.6505 12.0833 28.2639 12.3309 28.7584 12.8263C29.2528 13.3216 29.5 13.9353 29.5 14.6673C29.5 15.3779 29.2524 15.986 28.757 16.4916C28.2617 16.9971 27.648 17.2499 26.916 17.2499ZM16.242 15.9166C15.1585 15.9166 14.2362 15.5358 13.475 14.7743C12.7139 14.0127 12.3334 13.0879 12.3334 11.9999C12.3334 10.8999 12.7142 9.97214 13.4757 9.21659C14.2373 8.46103 15.162 8.08325 16.25 8.08325C17.35 8.08325 18.2778 8.46103 19.0334 9.21659C19.7889 9.97214 20.1667 10.9026 20.1667 12.0079C20.1667 13.0915 19.7889 14.0138 19.0334 14.7749C18.2778 15.536 17.3474 15.9166 16.242 15.9166Z" fill="#FCFF5A"/>
</g>
</svg>
