<svg width="33" height="32" viewBox="0 0 33 32" fill="none" xmlns="http://www.w3.org/2000/svg">
<mask id="mask0_206_1104" style="mask-type:alpha" maskUnits="userSpaceOnUse" x="0" y="0" width="33" height="32">
<rect x="0.25" width="32" height="32" fill="#D9D9D9"/>
</mask>
<g mask="url(#mask0_206_1104)">
<path d="M0.25 24V21.9C0.25 20.9444 0.738889 20.1667 1.71667 19.5667C2.69444 18.9667 3.98333 18.6667 5.58333 18.6667C5.87222 18.6667 6.15 18.6722 6.41667 18.6833C6.68333 18.6944 6.93889 18.7222 7.18333 18.7667C6.87222 19.2333 6.63889 19.7222 6.48333 20.2333C6.32778 20.7444 6.25 21.2778 6.25 21.8333V24H0.25ZM8.25 24V21.8333C8.25 21.1222 8.44444 20.4722 8.83333 19.8833C9.22222 19.2944 9.77222 18.7778 10.4833 18.3333C11.1944 17.8889 12.0444 17.5556 13.0333 17.3333C14.0222 17.1111 15.0944 17 16.25 17C17.4278 17 18.5111 17.1111 19.5 17.3333C20.4889 17.5556 21.3389 17.8889 22.05 18.3333C22.7611 18.7778 23.3056 19.2944 23.6833 19.8833C24.0611 20.4722 24.25 21.1222 24.25 21.8333V24H8.25ZM26.25 24V21.8333C26.25 21.2556 26.1778 20.7111 26.0333 20.2C25.8889 19.6889 25.6722 19.2111 25.3833 18.7667C25.6278 18.7222 25.8778 18.6944 26.1333 18.6833C26.3889 18.6722 26.65 18.6667 26.9167 18.6667C28.5167 18.6667 29.8056 18.9611 30.7833 19.55C31.7611 20.1389 32.25 20.9222 32.25 21.9V24H26.25ZM11.0833 21.3333H21.45C21.2278 20.8889 20.6111 20.5 19.6 20.1667C18.5889 19.8333 17.4722 19.6667 16.25 19.6667C15.0278 19.6667 13.9111 19.8333 12.9 20.1667C11.8889 20.5 11.2833 20.8889 11.0833 21.3333ZM5.58333 17.3333C4.85 17.3333 4.22222 17.0722 3.7 16.55C3.17778 16.0278 2.91667 15.4 2.91667 14.6667C2.91667 13.9111 3.17778 13.2778 3.7 12.7667C4.22222 12.2556 4.85 12 5.58333 12C6.33889 12 6.97222 12.2556 7.48333 12.7667C7.99444 13.2778 8.25 13.9111 8.25 14.6667C8.25 15.4 7.99444 16.0278 7.48333 16.55C6.97222 17.0722 6.33889 17.3333 5.58333 17.3333ZM26.9167 17.3333C26.1833 17.3333 25.5556 17.0722 25.0333 16.55C24.5111 16.0278 24.25 15.4 24.25 14.6667C24.25 13.9111 24.5111 13.2778 25.0333 12.7667C25.5556 12.2556 26.1833 12 26.9167 12C27.6722 12 28.3056 12.2556 28.8167 12.7667C29.3278 13.2778 29.5833 13.9111 29.5833 14.6667C29.5833 15.4 29.3278 16.0278 28.8167 16.55C28.3056 17.0722 27.6722 17.3333 26.9167 17.3333ZM16.25 16C15.1389 16 14.1944 15.6111 13.4167 14.8333C12.6389 14.0556 12.25 13.1111 12.25 12C12.25 10.8667 12.6389 9.91667 13.4167 9.15C14.1944 8.38333 15.1389 8 16.25 8C17.3833 8 18.3333 8.38333 19.1 9.15C19.8667 9.91667 20.25 10.8667 20.25 12C20.25 13.1111 19.8667 14.0556 19.1 14.8333C18.3333 15.6111 17.3833 16 16.25 16ZM16.25 13.3333C16.6278 13.3333 16.9444 13.2056 17.2 12.95C17.4556 12.6944 17.5833 12.3778 17.5833 12C17.5833 11.6222 17.4556 11.3056 17.2 11.05C16.9444 10.7944 16.6278 10.6667 16.25 10.6667C15.8722 10.6667 15.5556 10.7944 15.3 11.05C15.0444 11.3056 14.9167 11.6222 14.9167 12C14.9167 12.3778 15.0444 12.6944 15.3 12.95C15.5556 13.2056 15.8722 13.3333 16.25 13.3333Z" fill="white"/>
</g>
</svg>
