<svg width="33" height="32" viewBox="0 0 33 32" fill="none" xmlns="http://www.w3.org/2000/svg">
<mask id="mask0_206_1094" style="mask-type:alpha" maskUnits="userSpaceOnUse" x="0" y="0" width="33" height="32">
<rect x="0.25" width="32" height="32" fill="#D9D9D9"/>
</mask>
<g mask="url(#mask0_206_1094)">
<path d="M8.24998 30.6666C7.51665 30.6666 6.88887 30.4055 6.36665 29.8833C5.84442 29.361 5.58331 28.7333 5.58331 27.9999V13.3333C5.58331 12.5999 5.84442 11.9721 6.36665 11.4499C6.88887 10.9277 7.51665 10.6666 8.24998 10.6666H12.25V13.3333H8.24998V27.9999H24.25V13.3333H20.25V10.6666H24.25C24.9833 10.6666 25.6111 10.9277 26.1333 11.4499C26.6555 11.9721 26.9166 12.5999 26.9166 13.3333V27.9999C26.9166 28.7333 26.6555 29.361 26.1333 29.8833C25.6111 30.4055 24.9833 30.6666 24.25 30.6666H8.24998ZM14.9166 21.3333V6.43325L12.7833 8.56659L10.9166 6.66659L16.25 1.33325L21.5833 6.66659L19.7166 8.56659L17.5833 6.43325V21.3333H14.9166Z" fill="white"/>
</g>
</svg>
