<svg width="32" height="32" viewBox="0 0 32 32" fill="none" xmlns="http://www.w3.org/2000/svg">
<g id="info">
<mask id="mask0_196_1452" style="mask-type:alpha" maskUnits="userSpaceOnUse" x="0" y="0" width="32" height="32">
<rect id="Bounding box" width="32" height="32" fill="#D9D9D9"/>
</mask>
<g mask="url(#mask0_196_1452)">
<path id="info_2" d="M14.6667 22.6667H17.3334V14.6667H14.6667V22.6667ZM16 12.0001C16.3778 12.0001 16.6945 11.8723 16.95 11.6167C17.2056 11.3612 17.3334 11.0445 17.3334 10.6667C17.3334 10.289 17.2056 9.9723 16.95 9.71675C16.6945 9.46119 16.3778 9.33341 16 9.33341C15.6222 9.33341 15.3056 9.46119 15.05 9.71675C14.7945 9.9723 14.6667 10.289 14.6667 10.6667C14.6667 11.0445 14.7945 11.3612 15.05 11.6167C15.3056 11.8723 15.6222 12.0001 16 12.0001ZM16 29.3334C14.1556 29.3334 12.4222 28.9834 10.8 28.2834C9.1778 27.5834 7.76669 26.6334 6.56669 25.4334C5.36669 24.2334 4.41669 22.8223 3.71669 21.2001C3.01669 19.5779 2.66669 17.8445 2.66669 16.0001C2.66669 14.1556 3.01669 12.4223 3.71669 10.8001C4.41669 9.17786 5.36669 7.76675 6.56669 6.56675C7.76669 5.36675 9.1778 4.41675 10.8 3.71675C12.4222 3.01675 14.1556 2.66675 16 2.66675C17.8445 2.66675 19.5778 3.01675 21.2 3.71675C22.8222 4.41675 24.2334 5.36675 25.4334 6.56675C26.6334 7.76675 27.5834 9.17786 28.2834 10.8001C28.9834 12.4223 29.3334 14.1556 29.3334 16.0001C29.3334 17.8445 28.9834 19.5779 28.2834 21.2001C27.5834 22.8223 26.6334 24.2334 25.4334 25.4334C24.2334 26.6334 22.8222 27.5834 21.2 28.2834C19.5778 28.9834 17.8445 29.3334 16 29.3334ZM16 26.6667C18.9778 26.6667 21.5 25.6334 23.5667 23.5667C25.6334 21.5001 26.6667 18.9779 26.6667 16.0001C26.6667 13.0223 25.6334 10.5001 23.5667 8.43341C21.5 6.36675 18.9778 5.33341 16 5.33341C13.0222 5.33341 10.5 6.36675 8.43335 8.43341C6.36669 10.5001 5.33335 13.0223 5.33335 16.0001C5.33335 18.9779 6.36669 21.5001 8.43335 23.5667C10.5 25.6334 13.0222 26.6667 16 26.6667Z" fill="white"/>
</g>
</g>
</svg>
